<?xml version="1.0" encoding="utf-8"?>
<!-- Generator: Adobe Illustrator 19.1.0, SVG Export Plug-In . SVG Version: 6.00 Build 0)  -->
<svg version="1.1" id="Ebene_1" xmlns="http://www.w3.org/2000/svg" xmlns:xlink="http://www.w3.org/1999/xlink" x="0px" y="0px"
	 width="18px" height="18px" viewBox="0 0 18 18" style="enable-background:new 0 0 18 18;" xml:space="preserve">
<g id="remove-2">
	<path d="M12.2,9l5.6-5.6c0.2-0.2,0.2-0.6,0-0.8l-2.4-2.4c-0.2-0.2-0.6-0.2-0.8,0L9,5.8L3.4,0.2c-0.2-0.2-0.6-0.2-0.8,0L0.2,2.5
		c-0.2,0.2-0.2,0.6,0,0.8L5.8,9l-5.7,5.7c-0.2,0.2-0.2,0.6,0,0.8l2.4,2.4c0.2,0.2,0.6,0.2,0.8,0L9,12.2l5.6,5.6
		c0.2,0.2,0.6,0.2,0.8,0l2.4-2.4c0.2-0.2,0.2-0.6,0-0.8L12.2,9z"/>
</g>
</svg>
