<?xml version="1.0" encoding="utf-8"?>
<!-- Generator: Adobe Illustrator 19.1.0, SVG Export Plug-In . SVG Version: 6.00 Build 0)  -->
<svg version="1.1" id="Ebene_1" xmlns="http://www.w3.org/2000/svg" xmlns:xlink="http://www.w3.org/1999/xlink" x="0px" y="0px"
	 width="23.3px" height="18.7px" viewBox="0 0 23.3 18.7" style="enable-background:new 0 0 23.3 18.7;" xml:space="preserve">
<g id="ok-2">
	<path d="M23.2,3.4c0.2,0.2,0.2,0.5,0,0.7L8.7,18.5c-0.2,0.2-0.5,0.2-0.7,0l-3.2-3.2c-0.2-0.2-0.5-0.5-0.7-0.7l-3.9-3.9
		C0,10.5,0,10.2,0.1,10l3.2-3.2c0.2-0.2,0.5-0.2,0.7,0L8,10.6c0.2,0.2,0.5,0.2,0.7,0L19.2,0.1c0.2-0.2,0.5-0.2,0.7,0L23.2,3.4z"/>
</g>
</svg>
