<?xml version="1.0" encoding="utf-8"?>
<!-- Generator: Adobe Illustrator 21.0.2, SVG Export Plug-In . SVG Version: 6.00 Build 0)  -->
<svg version="1.1" id="Ebene_1" xmlns="http://www.w3.org/2000/svg" xmlns:xlink="http://www.w3.org/1999/xlink" x="0px" y="0px"
	 width="24px" height="15px" viewBox="0 0 24 15" style="enable-background:new 0 0 24 15;" xml:space="preserve">
<g id="show-lines_2_">
	<path style="fill-rule:evenodd;clip-rule:evenodd;fill:#20201E;" d="M24,14.5c0,0.3-0.2,0.5-0.5,0.5h-23C0.2,15,0,14.8,0,14.5v-2
		C0,12.2,0.2,12,0.5,12h23c0.3,0,0.5,0.2,0.5,0.5V14.5z M24,6.5C24,6.2,23.8,6,23.5,6h-23C0.2,6,0,6.2,0,6.5v2C0,8.8,0.2,9,0.5,9h23
		C23.8,9,24,8.8,24,8.5V6.5z M24,0.5C24,0.2,23.8,0,23.5,0h-23C0.2,0,0,0.2,0,0.5v2C0,2.8,0.2,3,0.5,3h23C23.8,3,24,2.8,24,2.5V0.5z
		"/>
</g>
</svg>
