<?xml version="1.0" encoding="utf-8"?>
<!-- Generator: Adobe Illustrator 20.0.0, SVG Export Plug-In . SVG Version: 6.00 Build 0)  -->
<svg version="1.1" id="Ebene_1" xmlns="http://www.w3.org/2000/svg" xmlns:xlink="http://www.w3.org/1999/xlink" x="0px" y="0px"
	 width="24.5px" height="24.5px" viewBox="0 0 24.5 24.5" style="enable-background:new 0 0 24.5 24.5;" xml:space="preserve">
<g id="info-sign_2_">
	<path d="M12.2,0C5.5,0,0,5.5,0,12.2s5.5,12.2,12.2,12.2c6.8,0,12.2-5.5,12.2-12.2S19,0,12.2,0z M11.2,5.8c0-0.3,0.2-0.5,0.5-0.5h2
		c0.3,0,0.5,0.2,0.5,0.5v2c0,0.3-0.2,0.5-0.5,0.5h-2c-0.3,0-0.5-0.2-0.5-0.5V5.8z M16.2,18.8c0,0.3-0.2,0.5-0.5,0.5h-6
		c-0.3,0-0.5-0.2-0.5-0.5v-2c0-0.3,0.2-0.5,0.5-0.5h1.5v-4H9.8c-0.3,0-0.5-0.2-0.5-0.5v-2c0-0.3,0.2-0.5,0.5-0.5h4
		c0.3,0,0.5,0.2,0.5,0.5v6.5h1.5c0.3,0,0.5,0.2,0.5,0.5V18.8z"/>
</g>
</svg>
