<?xml version="1.0" encoding="utf-8"?>
<!-- Generator: Adobe Illustrator 20.0.0, SVG Export Plug-In . SVG Version: 6.00 Build 0)  -->
<svg version="1.1" id="Ebene_1" xmlns="http://www.w3.org/2000/svg" xmlns:xlink="http://www.w3.org/1999/xlink" x="0px" y="0px"
	 width="23.5px" height="23.5px" viewBox="0 0 23.5 23.5" style="enable-background:new 0 0 23.5 23.5;" xml:space="preserve">
<g id="search_1_">
	<path d="M23.3,20.5l-5.9-5.9c1-1.5,1.5-3.2,1.5-5.1C19,4.3,14.7,0,9.5,0C4.3,0,0,4.3,0,9.5C0,14.7,4.3,19,9.5,19
		c1.9,0,3.6-0.6,5.1-1.5l5.9,5.9c0.2,0.2,0.5,0.2,0.7,0l2.1-2.1C23.5,21,23.5,20.7,23.3,20.5z M3,9.5C3,5.9,5.9,3,9.5,3
		C13.1,3,16,5.9,16,9.5c0,3.6-2.9,6.5-6.5,6.5C5.9,16,3,13.1,3,9.5z"/>
</g>
</svg>
