<?xml version="1.0" encoding="utf-8"?>
<!-- Generator: Adobe Illustrator 19.1.0, SVG Export Plug-In . SVG Version: 6.00 Build 0)  -->
<svg version="1.1" id="Ebene_1" xmlns="http://www.w3.org/2000/svg" xmlns:xlink="http://www.w3.org/1999/xlink" x="0px" y="0px"
	 width="21.9px" height="22px" viewBox="0 0 21.9 22" style="enable-background:new 0 0 21.9 22;" xml:space="preserve">
<g id="share-alt">
	<path d="M18.4,15c-0.9,0-1.7,0.4-2.3,0.9l-6.4-3.8c0.1-0.4,0.1-0.7,0.1-1.1c0-0.4-0.1-0.8-0.2-1.2L16,6.1C16.6,6.6,17.5,7,18.4,7
		c1.9,0,3.5-1.6,3.5-3.5S20.3,0,18.4,0c-1.9,0-3.5,1.6-3.5,3.5c0,0.3,0,0.6,0.1,0.8L8.8,8C7.9,6.9,6.5,6.1,4.9,6.1
		C2.2,6.1,0,8.3,0,11s2.2,4.9,4.9,4.9c1.6,0,3-0.8,3.9-1.9l6.2,3.7c-0.1,0.3-0.1,0.6-0.1,0.9c0,1.9,1.6,3.5,3.5,3.5
		c1.9,0,3.5-1.6,3.5-3.5S20.3,15,18.4,15z"/>
</g>
</svg>
